<svg xmlns="http://www.w3.org/2000/svg" fill="none" viewBox="0 0 14 14" height="250" width="250"><path fill="#8ad0df" stroke="#0b6e7b" d="M2.13319 12.7623C3.68998 12.9326 5.3205 13.1661 6.99999 13.1661C8.67949 13.1661 10.31 12.9326 11.8668 12.7623C12.3469 12.7097 12.7279 12.3291 12.7795 11.8489C12.9461 10.2978 13.1661 8.67325 13.1661 6.99999C13.1661 5.32672 12.9461 3.70223 12.7795 2.15113C12.7279 1.67093 12.3469 1.29025 11.8668 1.23772C10.31 1.06739 8.67949 0.833862 6.99999 0.833862C6.09899 0.833862 5.21213 0.901505 4.34315 0.990213C4.11735 1.01326 3.90676 1.11409 3.74577 1.27408L1.27245 3.73194C1.10893 3.89443 1.00621 4.10838 0.983737 4.3378C0.898442 5.20843 0.833862 6.09708 0.833862 6.99999C0.833862 8.67325 1.05392 10.2978 1.22051 11.8489C1.27209 12.329 1.65309 12.7097 2.13319 12.7623Z"></path><path fill="#ffffff" stroke="#0b6e7b" stroke-linecap="round" stroke-linejoin="round" d="M10.0921 12.9642V9.16361C10.0921 8.61145 9.64457 8.16378 9.0924 8.16361L4.90826 8.16235C4.35586 8.16219 3.90796 8.60995 3.90796 9.16235V12.9642C4.91539 13.0745 5.94811 13.1661 7.00005 13.1661C8.05197 13.1661 9.08468 13.0745 10.0921 12.9642Z"></path><path fill="#ffffff" stroke="#0b6e7b" stroke-linecap="round" stroke-linejoin="round" d="M5.08025 0.921419L5.08025 3.91348C5.08025 4.46564 5.52775 4.91329 6.07991 4.91348L9.21719 4.91455C9.76961 4.91474 10.2175 4.46697 10.2175 3.91455L10.2175 1.04964C9.17043 0.933251 8.09561 0.833862 6.99995 0.833862C6.35228 0.833862 5.71191 0.868815 5.08025 0.921419Z"></path></svg>