<svg xmlns="http://www.w3.org/2000/svg" fill="none" viewBox="0 0 14 14" height="250" width="250"><path fill="#8ad0df" stroke="#0b6e7b" stroke-linecap="round" stroke-linejoin="round" d="M12.7036 3.15381C12.781 3.18384 12.8483 3.23566 12.8974 3.30314C12.9704 3.39176 13.0068 3.50541 12.999 3.62046C13.2937 6.24157 13.2907 7.76796 12.999 10.4149C12.9978 10.5081 12.969 10.5988 12.9163 10.6753C12.8637 10.7518 12.7896 10.8107 12.7036 10.8442L7.16561 13.0001L6.99947 13.0458L6.83333 13.0001L1.29535 10.8442C1.20935 10.8107 1.13525 10.7518 1.08261 10.6753C1.02996 10.5988 1.00119 10.5081 0.999992 10.4149C0.720625 7.79946 0.725681 6.21767 0.999992 3.58313C1.00122 3.48081 1.03705 3.382 1.10152 3.30314C1.15536 3.24935 1.22219 3.21074 1.29535 3.19114L12.7036 3.15381Z"></path><path fill="#ffffff" stroke="#0b6e7b" stroke-linecap="round" stroke-linejoin="round" d="M12.9906 3.49759C12.9758 3.4266 12.9441 3.35967 12.8974 3.30299C12.8483 3.23551 12.781 3.18369 12.7036 3.15366L7.16563 1.03506C7.11322 1.01194 7.05666 1 6.99949 1C6.94231 1 6.88575 1.01194 6.83335 1.03506L1.29537 3.19099C1.2222 3.21059 1.15538 3.2492 1.10154 3.30299C1.05484 3.36011 1.02317 3.42769 1.00879 3.49949C1.02111 3.56228 1.04613 3.62214 1.08262 3.67518C1.13526 3.7517 1.20936 3.81052 1.29537 3.84407L6.83335 6H7.16563L12.7036 3.84407C12.7896 3.81052 12.8637 3.7517 12.9164 3.67518C12.9532 3.6216 12.9784 3.56107 12.9906 3.49759Z"></path><path stroke="#0b6e7b" stroke-linecap="round" stroke-linejoin="round" d="M7 13.0459L7 6"></path></svg>