<svg xmlns="http://www.w3.org/2000/svg" fill="none" viewBox="0 0 14 14" height="250" width="250"><path fill="#8ad0df" stroke="#0b6e7b" stroke-linecap="round" stroke-linejoin="round" d="M7 13.1956C10.4217 13.1956 13.1956 10.4217 13.1956 7C13.1956 3.57826 10.4217 0.804385 7 0.804385C3.57825 0.804385 0.804382 3.57826 0.804382 7C0.804382 10.4217 3.57825 13.1956 7 13.1956Z"></path><path fill="#ffffff" stroke="#0b6e7b" stroke-linecap="round" stroke-linejoin="round" d="M2.94891 9.38293C3.39131 9.38293 3.81558 9.20719 4.1284 8.89437C4.44122 8.58155 4.61696 8.15728 4.61696 7.71488V6.28512C4.61696 5.84273 4.7927 5.41845 5.10552 5.10563C5.41834 4.79281 5.84262 4.61707 6.28501 4.61707C6.72741 4.61707 7.15168 4.44133 7.4645 4.12851C7.77732 3.81569 7.95307 3.39142 7.95307 2.94902V0.87725C7.64237 0.829278 7.32406 0.804389 6.99994 0.804389C3.57819 0.804389 0.804321 3.57826 0.804321 7.00001C0.804321 7.84442 0.97325 8.64938 1.27916 9.38293H2.94891Z"></path><path fill="#ffffff" stroke="#0b6e7b" stroke-linecap="round" stroke-linejoin="round" d="M13.1948 6.90437C12.7178 6.65695 12.1887 6.52638 11.6513 6.52342H9.62105C9.17866 6.52342 8.75438 6.69916 8.44156 7.01198C8.12874 7.3248 7.953 7.74908 7.953 8.19147C7.953 8.63387 8.12874 9.05814 8.44156 9.37096C8.75438 9.68378 9.17866 9.85952 9.62105 9.85952C9.93705 9.85952 10.2401 9.98505 10.4635 10.2085C10.687 10.4319 10.8125 10.735 10.8125 11.051V11.8802H10.8173C12.2562 10.7532 13.184 9.00359 13.1954 7.03686V6.96316C13.1953 6.94354 13.1951 6.92394 13.1948 6.90437Z"></path></svg>