<svg xmlns="http://www.w3.org/2000/svg" fill="none" viewBox="0 0 14 14" height="250" width="250"><path fill="#8ad0df" stroke="#0b6e7b" stroke-linejoin="round" d="M9.77223 1.64728C10.5598 0.832875 11.8423 0.613721 12.6434 1.41483C13.4446 2.21594 13.2253 3.49829 12.4154 4.29045C11.9543 4.74143 11.4538 5.22029 10.9366 5.70821C11.6441 6.85835 12.3296 8.11233 12.7885 8.97857C13.1262 9.6159 13.0393 10.4434 12.591 10.9834C12.0783 11.6009 11.256 11.6499 10.7092 11.0853C10.0626 10.4177 9.18793 9.4971 8.38419 8.59315C8.29853 8.49681 8.21992 8.39463 8.14851 8.28764C7.33272 9.03066 6.57708 9.71048 5.9759 10.2483C6.07881 10.883 6.16199 11.536 6.22058 12.0425C6.28167 12.5706 5.93371 13.0542 5.41639 13.1768C4.89906 13.2994 4.37111 13.0233 4.18876 12.5239C3.99328 11.9885 3.74313 11.2757 3.53551 10.5943C2.85417 10.3867 2.14147 10.1366 1.60616 9.94112C1.10676 9.75878 0.830648 9.23083 0.953212 8.7135C1.07578 8.19617 1.5594 7.84821 2.08753 7.90931C2.59106 7.96755 3.2394 8.05011 3.87062 8.15219C4.4188 7.52413 5.11743 6.72898 5.88104 5.8727C5.85312 5.85507 5.8255 5.83694 5.7982 5.81829C4.79947 5.1359 3.77526 4.38528 3.03089 3.82871C2.40141 3.35804 2.34548 2.53619 2.89286 1.94925C3.3716 1.4359 4.18132 1.24462 4.85638 1.49859C5.81429 1.85897 7.22277 2.41059 8.49738 2.99364C8.9353 2.52302 9.36486 2.06852 9.77223 1.64728Z"></path></svg>