<svg xmlns="http://www.w3.org/2000/svg" fill="none" viewBox="0 0 14 14" height="250" width="250"><path fill="#8ad0df" stroke="#0b6e7b" stroke-linejoin="round" d="M4.86172 13.1146L1.87715 13.1146C1.35147 13.1146 0.914048 12.7076 0.890735 12.1825C0.840145 11.0429 0.841754 9.91625 0.895563 8.77579C0.918204 8.29593 1.28868 7.904 1.76757 7.86595C2.55601 7.80331 3.24923 7.80331 4.03767 7.86595C4.51656 7.904 4.88704 8.29593 4.90968 8.77579C4.9781 10.226 4.96212 11.6539 4.86172 13.1146Z"></path><path fill="#8ad0df" stroke="#0b6e7b" stroke-linejoin="round" d="M8.95914 13.1146L5.04093 13.1146C4.9325 10.5166 4.92253 7.9817 5.01102 5.39529C5.02682 4.93332 5.35992 4.53912 5.81798 4.47712C6.64168 4.36562 7.35839 4.36562 8.18209 4.47712C8.64015 4.53912 8.97324 4.93332 8.98905 5.39529C9.07753 7.9817 9.06756 10.5166 8.95914 13.1146Z"></path><path fill="#8ad0df" stroke="#0b6e7b" stroke-linejoin="round" d="M12.0486 13.1146L9.08956 13.1146C8.98013 10.4928 8.97098 4.99622 9.0621 1.89352C9.07567 1.43148 9.40855 1.03912 9.8666 0.977118C10.6903 0.865619 11.407 0.865619 12.2307 0.977118C12.6888 1.03912 13.0216 1.43148 13.0352 1.89352C13.1164 4.65663 13.118 9.31826 13.0401 12.1573C13.0254 12.6932 12.5847 13.1146 12.0486 13.1146Z"></path></svg>