<svg xmlns="http://www.w3.org/2000/svg" fill="none" viewBox="0 0 14 14" height="250" width="250"><path fill="#8ad0df" stroke="#0b6e7b" stroke-linejoin="round" d="M0.953225 11.415C1.08263 12.2933 1.83464 12.9286 2.71931 13.0034C4.09848 13.1199 5.53075 13.2489 7 13.2489C8.49049 13.2489 9.93356 13.1668 11.3332 13.0375C12.1938 12.958 12.9008 12.3164 13.0292 11.4617C13.1648 10.5592 13.25 9.63094 13.25 8.67725C13.25 7.71403 13.1718 6.7679 13.0341 5.8567C12.9074 5.01877 12.2118 4.39531 11.368 4.31591C9.9543 4.18286 8.50461 4.10565 7 4.10565C5.4906 4.10565 4.0147 4.17848 2.60226 4.31356C1.77298 4.39286 1.08869 5.00274 0.963069 5.82627C0.822757 6.74609 0.75 7.70417 0.75 8.67725C0.75 9.61491 0.822387 10.5269 0.953225 11.415Z"></path><path stroke="#0b6e7b" stroke-linecap="round" stroke-linejoin="round" d="M4.59613 13.1522V4.1886"></path><path stroke="#0b6e7b" stroke-linecap="round" stroke-linejoin="round" d="M9.40387 13.1757V4.1886"></path><path stroke="#0b6e7b" stroke-linecap="round" stroke-linejoin="round" d="M9.85458 4.17297V3.60567C9.85458 2.84859 9.55383 2.12252 9.0185 1.58718C8.48316 1.05185 7.75709 0.751099 7.00001 0.751099C6.24294 0.751099 5.51687 1.05185 4.98153 1.58718C4.44619 2.12252 4.14545 2.84859 4.14545 3.60567V4.17297"></path></svg>